<?xml version="1.0" encoding="UTF-8"?>
<svg id="Calque_3" data-name="Calque 3" xmlns="http://www.w3.org/2000/svg" viewBox="0 0 1000 1000">
  <defs>
    <style>
      .cls-1 {
        fill: #fafafa;
      }
    </style>
  </defs>
  <path class="cls-1" d="M725.55,772.34c-.02.06,0,.11,0,.18l-.1-.1s.07-.05.1-.08Z"/>
  <path class="cls-1" d="M725.46,772.43s.07-.05.1-.08c-.02.06,0,.11,0,.18l-.1-.1Z"/>
  <path class="cls-1" d="M765.55,317.81c-13.61,13.62-37.15,21.97-47.61,32.45-6.62,6.62-10.7,19.2-17.9,30.26-1.38-1.6-2.77-3.19-4.18-4.77-6.03-6.77-12.41-13.23-19.14-19.38,10.94-7.01,23.24-11.07,29.75-17.58,10.48-10.48,18.83-34,32.45-47.62,18.91-18.9,28.88-16.94,36.25-9.58,7.33,7.34,9.29,17.31-9.62,36.22Z"/>
  <path class="cls-1" d="M508.96,250.05c0,10.05,6.96,22.91,9.29,36.98-.95-.08-1.92-.16-2.87-.23-9.62-.67-19.44-.87-29.41-.52-.8.02-1.6.06-2.39.09,2.43-13.81,9.17-26.43,9.17-36.32,0-14.82-10.73-37.36-10.73-56.62,0-26.73,8.44-32.41,18.86-32.41s18.81,5.68,18.81,32.41c0,19.26-10.75,41.82-10.73,56.62Z"/>
  <path class="cls-1" d="M891.57,551.32h-124.74c-.12-4.25-.36-8.5-.69-12.74-.04-.47-.07-.94-.12-1.42,13.98,2.38,26.75,9.25,36.75,9.25,14.81,0,37.35-10.73,56.62-10.73,23.92,0,30.97,6.76,32.18,15.64Z"/>
  <path class="cls-1" d="M229.19,537.22c-.03.46-.06.91-.08,1.36-.25,4.23-.41,8.48-.45,12.74h-124.89c1.24-8.87,8.3-15.6,32.2-15.6,19.25,0,41.79,10.73,56.6,10.73,9.98,0,22.7-6.83,36.62-9.23Z"/>
  <path class="cls-1" d="M585.17,537.22h158.04c-4.64-53.55-27.27-103.65-62.2-143.08l-112.04,112.03-20.8-20.79,112.11-112.11c-39.2-35.14-89.57-58.33-145.4-62.4h-.01v159.48h-29.41v-159.84c-1.32.05-2.66.11-4,.21-60.02,3.83-109.41,25.84-146.89,58.64h-.01l117.04,117.04-20.79,20.79-117.1-117.1h0c-36.67,41.27-57.98,94.23-62.04,148.49h163.84v12.74h-186.84c.04-4.26.2-8.51.45-12.74.02-.45.05-.9.08-1.36,3.77-60.8,27.69-117.53,66.37-161.63.01.01.02.03.03.04,1.05-1.2,2.11-2.38,3.18-3.56,1.06-1.19,2.12-2.35,3.2-3.51.72-.77,1.45-1.55,2.17-2.3l.16-.16c.8-.83,1.61-1.66,2.42-2.48,1.63-1.65,3.3-3.29,4.99-4.89.22-.22.45-.44.68-.65,2.66-2.48,5.31-4.85,7.92-7.17-.01,0-.01-.01-.02-.01,41.88-36.61,95.99-60.45,157.81-64.24,1.83-.11,3.66-.21,5.48-.29.79-.03,1.59-.07,2.39-.09,9.97-.35,19.79-.15,29.41.52.95.07,1.92.15,2.87.23,61.56,5,115.26,30.33,156.86,67.87.54.48,1.08.97,1.61,1.47,6.73,6.15,13.11,12.61,19.14,19.38,1.41,1.58,2.8,3.17,4.18,4.77,37.58,43.94,61.15,99.15,65.98,156.64.05.48.08.95.12,1.42.33,4.24.57,8.49.69,12.74h-181.66v-14.1Z"/>
  <path class="cls-1" d="M664.86,742.01l.1.1c0-.07,0-.12,0-.2-.03.03-.07.08-.1.1Z"/>
  <path class="cls-1" d="M556.84,551.32h-115.73c1.33-30.81,26.73-55.38,57.86-55.38s56.54,24.57,57.86,55.38Z"/>
  <path class="cls-1" d="M320.31,350.91c-2.61,2.32-5.26,4.69-7.92,7.17-.23.21-.46.43-.68.65-1.36,1.27-2.72,2.59-4.06,3.93-.32.32-.64.64-.93.96-.84.82-1.63,1.64-2.42,2.48l-.16.16c-.72.75-1.45,1.53-2.17,2.3-1.08,1.16-2.14,2.32-3.2,3.51-1.07,1.18-2.13,2.36-3.18,3.56-.01-.01-.02-.03-.03-.04-8.35-11.56-12.45-25.68-19.55-32.78-10.34-10.37-33.72-18.55-47.19-32.03-18.71-18.71-16.71-28.64-9.37-35.97,7.36-7.37,17.3-9.37,36.01,9.34,13.47,13.46,21.65,36.82,32.02,47.18.32.32.65.63.99.93.01.01.02.02.03.02,7.38,6.55,20.75,10.64,31.79,18.62.01,0,.01.01.02.01Z"/>
  <path class="cls-1" d="M292.4,328.77s-.04.03-.06.05c-.03.03-.06.05-.09.08-2.62,2.29-5.21,4.64-7.74,7.05,2.66-2.48,5.31-4.86,7.92-7.17-.01,0-.01-.01-.02-.01ZM271.25,349.48c-1.14,1.24-2.26,2.5-3.38,3.77-.06.07-.12.13-.19.21.01.01.02.03.03.04,1.05-1.19,2.11-2.38,3.18-3.56,1.06-1.18,2.13-2.35,3.21-3.51-.98,1.01-1.91,2.02-2.84,3.05ZM636.97,714.11l.1.1c0-.07-.01-.12,0-.2-.03.03-.07.07-.1.09Z"/>
  <g>
    <path class="cls-1" d="M163.67,592.91h13.68l27.47,54.83,27.47-54.83h12.81v77.63h-15.31v-43.21l-22.04,43.21h-6.73l-22.04-43.21v43.21h-15.31v-77.63Z"/>
    <path class="cls-1" d="M315.99,652.19h-30.18l-7.17,18.35h-16.72l32.79-77.63h13.79l32.68,77.63h-18.24l-6.95-18.35ZM311,638.94l-9.88-25.73-10.1,25.73h19.98Z"/>
    <path class="cls-1" d="M373.53,620.59v49.94h-15.53v-77.63h13.68l36.04,49.07v-49.07h15.42v77.63h-13.68l-35.94-49.94Z"/>
    <path class="cls-1" d="M494.05,652.19h-30.18l-7.17,18.35h-16.72l32.79-77.63h13.79l32.68,77.63h-18.24l-6.95-18.35ZM489.05,638.94l-9.88-25.73-10.1,25.73h19.98Z"/>
    <path class="cls-1" d="M605.73,632.21c0,22.47-16.07,39.95-38.76,39.95s-40.93-17.7-40.93-40.5,17.92-40.39,41.47-40.39c11.73,0,21.93,4.23,29.1,11.18l-10.32,11.07c-4.56-4.45-11.18-7.38-18.78-7.38-14.77,0-25.73,11.18-25.73,25.51s10.96,25.62,25.19,25.62c11.29,0,19.32-6.51,22.47-15.85h-34.53v-13.57h50.59s.22,2.39.22,4.34Z"/>
    <path class="cls-1" d="M670.72,656.1v14.44h-46.69v-77.63h43.43v14.44h-27.69v16.5h30.4v13.35h-30.4v18.89h30.94Z"/>
    <path class="cls-1" d="M691.03,642.74v-49.83h15.74v49.4c0,8.69,4.78,14.11,12.7,14.11s12.81-5.43,12.81-14.11v-49.4h15.74v49.83c0,18.02-11.29,29.42-28.55,29.42s-28.45-11.4-28.45-29.42Z"/>
    <path class="cls-1" d="M784.89,639.48h-2.17v31.05h-15.74v-77.63h24.21c14.87,0,24.43,10.64,24.43,23.34,0,9.55-5.54,17.91-14.66,21.5l23.34,32.79h-18.57l-20.85-31.05ZM782.71,606.59v21.28h5.97c6.84,0,11.51-4.56,11.51-10.64s-4.67-10.64-11.51-10.64h-5.97Z"/>
  </g>
  <rect class="cls-1" x="708.22" y="696.23" width="188.63" height="3.58"/>
  <rect class="cls-1" x="95.92" y="696.23" width="188.63" height="3.58"/>
  <path class="cls-1" d="M312.61,707.93h8.01l16.09,32.11,16.08-32.11h7.5v45.46h-8.97v-25.3l-12.91,25.3h-3.94l-12.91-25.3v25.3h-8.96v-45.46Z"/>
  <path class="cls-1" d="M366.53,747.03l5.34-6.04s4.58,5.4,10.24,5.4c3.88,0,5.85-2.42,5.85-5.28s-2.35-4.83-7.5-7.25c-7.69-3.56-12.34-7.63-12.34-14.5s5.6-12.4,14.62-12.4c8.01,0,13.16,4.83,13.16,4.83l-5.09,6.42s-3.18-3.37-7.95-3.37c-3.56,0-5.53,1.91-5.53,4.45s2.1,4.51,6.99,6.74c7.88,3.56,12.84,7.31,12.84,14.69s-5.66,13.61-14.88,13.61c-10.43,0-15.77-7.31-15.77-7.31Z"/>
  <path class="cls-1" d="M401.63,730.63c0-13.29,10.49-23.65,23.9-23.65,8.52,0,15.39,4.2,19.71,10.68l-7.25,5.15c-2.67-4.26-7.06-7.12-12.46-7.12-8.27,0-14.69,6.55-14.69,14.94s6.42,15,14.69,15c5.47,0,9.92-2.99,12.59-7.37l7.44,4.96c-4.32,6.74-11.32,11.13-20.03,11.13-13.42,0-23.9-10.36-23.9-23.71Z"/>
  <path class="cls-1" d="M495.54,730.94c0,13.16-9.41,23.4-22.7,23.4s-23.97-10.36-23.97-23.71,10.49-23.65,24.29-23.65c6.86,0,12.84,2.48,17.04,6.55l-6.04,6.49c-2.67-2.61-6.55-4.32-11-4.32-8.65,0-15.07,6.55-15.07,14.94s6.42,15,14.75,15c6.61,0,11.32-3.81,13.16-9.28h-20.22v-7.95h29.63s.13,1.4.13,2.54Z"/>
  <path class="cls-1" d="M518.62,747.03l5.34-6.04s4.58,5.4,10.24,5.4c3.88,0,5.85-2.42,5.85-5.28s-2.35-4.83-7.5-7.25c-7.69-3.56-12.34-7.63-12.34-14.5s5.6-12.4,14.62-12.4c8.01,0,13.16,4.83,13.16,4.83l-5.09,6.42s-3.18-3.37-7.95-3.37c-3.56,0-5.53,1.91-5.53,4.45s2.1,4.51,6.99,6.74c7.88,3.56,12.84,7.31,12.84,14.69s-5.66,13.61-14.88,13.61c-10.43,0-15.77-7.31-15.77-7.31Z"/>
  <path class="cls-1" d="M553.72,730.63c0-13.29,10.49-23.65,23.9-23.65s23.97,10.36,23.97,23.65-10.49,23.71-23.97,23.71-23.9-10.36-23.9-23.71ZM592.37,730.63c0-8.39-6.42-14.94-14.75-14.94s-14.69,6.55-14.69,14.94,6.42,15,14.69,15,14.75-6.55,14.75-15Z"/>
  <path class="cls-1" d="M635.61,744.68v8.71h-27.34v-45.46h9.22v36.75h18.12Z"/>
  <path class="cls-1" d="M637.08,730.63c0-13.29,10.49-23.65,23.91-23.65s23.97,10.36,23.97,23.65-10.49,23.71-23.97,23.71-23.91-10.36-23.91-23.71ZM675.73,730.63c0-8.39-6.42-14.94-14.75-14.94s-14.69,6.55-14.69,14.94,6.42,15,14.69,15,14.75-6.55,14.75-15Z"/>
</svg>